<?xml version="1.0" encoding="utf-8"?>
<!-- Generator: Adobe Illustrator 22.1.0, SVG Export Plug-In . SVG Version: 6.00 Build 0)  -->
<svg version="1.1" id="Layer_1" xmlns="http://www.w3.org/2000/svg" xmlns:xlink="http://www.w3.org/1999/xlink" x="0px" y="0px"
	 viewBox="0 0 200 199.8" style="enable-background:new 0 0 200 199.8;" xml:space="preserve">
<path d="M196.7,180.9l-49-49c24.7-32.1,22.2-78.4-7.4-107.7C124.1,7.9,103.2,0,82.1,0S40.2,7.9,24,24.1C-8,56.2-8,108.2,24,140.3
	c16.2,16.2,37,24.1,58.1,24.1c17.5,0,35.1-5.5,49.6-16.7l49.3,48.8c2.2,2.2,4.9,3.3,7.9,3.3c2.7,0,5.8-1.1,7.9-3.3
	C201.1,192.4,201.1,185.2,196.7,180.9L196.7,180.9z M82.4,142.2c-16.2,0-31-6.3-42.5-17.5c-23.3-23.3-23.3-61.4,0-84.9
	c11.2-11.2,26.3-17.5,42.5-17.5s31,6.3,42.5,17.5s17.5,26.3,17.5,42.5s-6.3,31-17.5,42.5C113.6,136.2,98.3,142.2,82.4,142.2
	L82.4,142.2z"/>
</svg>
