<svg xmlns="http://www.w3.org/2000/svg" viewBox="0 0 218.75 283.44"><title>icon-bag</title><path d="M109.37,0C78.43,0,53.12,25.63,53.12,56.87V80.31H9.38A9.22,9.22,0,0,0,0,89.7V236.57a46.81,46.81,0,0,0,46.87,46.87h125a46.81,46.81,0,0,0,46.87-46.87V89.7a9.21,9.21,0,0,0-9.37-9.38H165.62V56.88C165.62,25.63,140.31,0,109.37,0ZM71.87,56.88c0-20.94,16.88-38.12,37.5-38.12s37.5,17.19,37.5,38.12V80.32h-75ZM200,99.38V236.87A28,28,0,0,1,171.87,265h-125a28,28,0,0,1-28.13-28.13V99.39H53.12v16.25a9.38,9.38,0,1,0,18.75,0V99.39h75v16.25a9.38,9.38,0,1,0,18.75,0V99.39Z"/></svg>
